<?xml version="1.0" standalone="no"?>
<!DOCTYPE svg PUBLIC "-//W3C//DTD SVG 1.1//EN" "http://www.w3.org/Graphics/SVG/1.1/DTD/svg11.dtd" >
<!--
2013-9-30: Created.
-->
<svg>
<metadata>
Created by iconfont
</metadata>
<defs>

<font id="iconfont" horiz-adv-x="1024" >
  <font-face
    font-family="iconfont"
    font-weight="500"
    font-stretch="normal"
    units-per-em="1024"
    ascent="896"
    descent="-128"
  />
    <missing-glyph />
    
    <glyph glyph-name="w-plus" unicode="&#58911;" d="M902.947 324.97299999999996h-332.293v-332.346c0-32.387-26.267-58.628-58.655-58.628-32.387 0-58.654 26.241-58.654 58.628v332.346h-332.295c-32.414 0-58.654 26.241-58.654 58.628 0 32.375 26.243 58.628 58.654 58.628h332.293v332.346c0 32.375 26.267 58.628 58.654 58.628 32.388 0 58.655-26.254 58.655-58.628v-332.347h332.293c32.414 0 58.655-26.252 58.655-58.626-0.001-32.387-26.241-58.626-58.655-58.626z"  horiz-adv-x="1024" />

    
    <glyph glyph-name="bianji" unicode="&#58883;" d="M358.165868 341.375204c-0.533143-0.680499-1.066285-1.391696-1.303692-2.251274l-41.104163-150.700257c-2.400676-8.772804 0.059352-18.226107 6.550183-24.892947 4.860704-4.742001 11.261485-7.350408 18.077727-7.350408 2.252297 0 4.504594 0.267083 6.727215 0.860601l149.630902 40.808428c0.23843 0 0.357134-0.207731 0.534166-0.207731 1.718131 0 3.408633 0.62217 4.683672 1.927909l400.113747 400.054395c11.883655 11.897981 18.404162 28.109198 18.404162 45.74281 0 19.989263-8.476045 39.963177-23.324218 54.767348l-37.786605 37.844933c-14.81645 14.848173-34.822087 23.338544-54.797024 23.338544-17.631566 0-33.842783-6.520507-45.75816-18.388812L358.758362 342.767923C358.344946 342.384184 358.462626 341.820342 358.165868 341.375204M862.924953 638.80222l-39.742143-39.71349-64.428382 65.451688 39.180348 39.179324c6.193049 6.222725 18.194384 5.318122 25.308409-1.822508l37.813211-37.845956c3.943822-3.941775 6.195096-9.18622 6.195096-14.372336C867.223862 645.425058 865.710392 641.57231 862.924953 638.80222M429.322487 335.092104l288.712541 288.728914 64.459081-65.49569L494.314711 270.161279 429.322487 335.092104zM376.718409 218.029968l20.863167 76.580143 55.656601-55.657624L376.718409 218.029968zM888.265084 480.264461c-15.144932 0-27.562752-12.313443-27.620058-27.665083l0-372.98283c0-19.559475-15.885805-35.444257-35.475979-35.444257L194.220958 44.172291c-19.559475 0-35.504632 15.883759-35.504632 35.444257L158.716326 688.397778c0 19.575848 15.945157 35.474956 35.504632 35.474956l406.367171 0c15.231913 0 27.592428 12.371772 27.592428 27.606755 0 15.202237-12.360516 27.590382-27.592428 27.590382L190.013123 779.069871c-47.684022 0-86.49291-38.779212-86.49291-86.49291L103.520213 75.40769c0-47.713698 38.808888-86.47756 86.49291-86.47756l639.334083 0c47.715745 0 86.509283 38.763862 86.509283 86.47756L915.856489 452.777433C915.794068 467.951017 903.408993 480.264461 888.265084 480.264461"  horiz-adv-x="1024" />

    
    <glyph glyph-name="alertwarn" unicode="&#59006;" d="M512-96c-262.4 0-480 217.6-480 480S249.6 864 512 864s480-217.6 480-480S774.4-96 512-96zM512 787.2C288 787.2 108.8 608 108.8 384s179.2-403.2 403.2-403.2c224 0 403.2 179.2 403.2 403.2S736 787.2 512 787.2zM512 153.6c-19.2 0-38.4 19.2-38.4 38.4 0 19.2 19.2 38.4 38.4 38.4 19.2 0 38.4-19.2 38.4-38.4C550.4 172.8 531.2 153.6 512 153.6zM518.4 268.8 505.6 268.8c-6.4 0-12.8 12.8-12.8 32L473.6 601.6c0 12.8 12.8 25.6 25.6 25.6l19.2 0c12.8 0 32-12.8 32-25.6L531.2 300.8C531.2 281.6 524.8 268.8 518.4 268.8z"  horiz-adv-x="1024" />

    
    <glyph glyph-name="shibaiicon" unicode="&#58939;" d="M512 871.619048c-269.165714 0-487.619048-218.453333-487.619048-487.619048s218.453333-487.619048 487.619048-487.619048 487.619048 218.453333 487.619048 487.619048S781.165714 871.619048 512 871.619048zM776.289524 143.11619l-31.207619-31.207619-233.081905 234.057143-234.057143-233.081905-31.207619 31.207619 234.057143 233.081905-233.081905 234.057143 31.207619 31.207619L512 408.380952l234.057143 233.081905 31.207619-31.207619-234.057143-233.081905L776.289524 143.11619z"  horiz-adv-x="1024" />

    
    <glyph glyph-name="jiantou1" unicode="&#58892;" d="M957.463608 569.391361 541.393447 142.01776l0 0-29.720905-30.527271-29.718859 30.527271 0 0L65.883523 569.391361l29.718859 30.525224 416.07016-427.370531 416.07016 427.370531L957.463608 569.391361z"  horiz-adv-x="1024" />

    
    <glyph glyph-name="correct" unicode="&#58955;" d="M512-64c-247.039484 0-448 200.960516-448 448S264.960516 832 512 832 960 631.039484 960 384 759.039484-64 512-64zM512 767.712727c-211.584464 0-383.712727-172.128262-383.712727-383.712727 0-211.551781 172.128262-383.712727 383.712727-383.712727 211.551781 0 383.712727 172.159226 383.712727 383.712727C895.712727 595.584464 723.551781 767.712727 512 767.712727zM726.976697 502.815858c-12.54369 12.447359-32.831716 12.320065-45.248112-0.25631l-233.279613-235.839269-103.26354 106.112189c-12.352748 12.703669-32.60809 12.927295-45.248112 0.639914-12.672705-12.320065-12.959978-32.60809-0.639914-45.248112l126.016611-129.503454c0.063647-0.096331 0.192662-0.096331 0.25631-0.192662 0.063647-0.063647 0.096331-0.192662 0.159978-0.25631 2.016073-1.983389 4.512082-3.19957 6.880796-4.544765 1.247144-0.672598 2.239699-1.792447 3.519527-2.303346 3.872168-1.599785 8.000645-2.399677 12.096439-2.399677 4.06483 0 8.12794 0.799892 11.967424 2.33603 1.247144 0.512619 2.208735 1.536138 3.392232 2.176052 2.399677 1.343475 4.895686 2.528692 6.944443 4.544765 0.063647 0.063647 0.096331 0.192662 0.192662 0.25631 0.063647 0.096331 0.159978 0.127295 0.25631 0.192662l256.223626 259.008628C739.647682 470.14412 739.520387 490.399462 726.976697 502.815858z"  horiz-adv-x="1024" />

    
    <glyph glyph-name="xuanzhong1" unicode="&#59040;" d="M512.723 874.851c-271.456 0-491.52-220.064-491.52-491.52s220.064-491.52 491.52-491.52 491.52 220.064 491.52 491.52-220.064 491.52-491.52 491.52zM798.679 537.395c0 0-359.601-337.36-359.711-337.456-8.069-7.865-21.094-7.7-28.959 0.369l-183.637 181.22c-7.865 8.069-7.7 21.094 0.369 28.959s21.094 7.7 28.959-0.369l169.097-166.53 345.279 323.134c8.069 7.865 21.094 7.7 28.959-0.369 7.878-8.069 7.714-21.094-0.355-28.959z"  horiz-adv-x="1024" />

    
    <glyph glyph-name="cuowu1" unicode="&#58908;" d="M512-121.279c-279.061 0-505.282 226.223-505.282 505.282s226.221 505.279 505.282 505.279c279.059 0 505.282-226.223 505.282-505.282s-226.223-505.279-505.282-505.279zM512 826.122c-244.169 0-442.122-197.949-442.122-442.122s197.952-442.119 442.122-442.119c244.169 0 442.119 197.949 442.119 442.119s-197.949 442.122-442.119 442.122zM556.841 383.836l133.803-133.827c12.337-12.316 12.337-32.32 0-44.653-12.333-12.337-32.337-12.337-44.653 0l-133.827 133.803-134.708-134.708c-12.439-12.437-32.587-12.437-45.005 0-12.439 12.437-12.439 32.587 0 45.007l134.708 134.727-133.806 133.806c-12.335 12.335-12.335 32.32 0 44.657 12.337 12.333 32.32 12.333 44.657 0l133.806-133.806 135.716 135.716c12.437 12.419 32.587 12.419 45.007 0 12.437-12.437 12.437-32.587 0-45.026l-135.7-135.698z"  horiz-adv-x="1024" />

    
    <glyph glyph-name="weixuanzhong1" unicode="&#59054;" d="M518.02624 885.76C243.03104 885.76 20.10624 662.83008 20.10624 387.84c0-274.9952 222.92992-497.92 497.92-497.92 274.9952 0 497.92 222.9248 497.92 497.92C1015.94624 662.83008 793.02144 885.76 518.02624 885.76zM518.02624-66.55999999999995c-250.9568 0-454.4 203.43808-454.4 454.4 0 250.9568 203.4432 454.4 454.4 454.4 250.96192 0 454.4-203.4432 454.4-454.4C972.42624 136.87807999999995 768.98304-66.55999999999995 518.02624-66.55999999999995z"  horiz-adv-x="1024" />

    
    <glyph glyph-name="error" unicode="&#58899;" d="M716.56 546.5c-11.5 11.8-25 7.9-36.6-4.8l-153.8-157.9-160 159.8c-11.8 10.8-23 14.8-34.1 3.7-9.1-10.6-8.2-20.3 4.1-33.6l157.3-160.4-155.3-156.8c-11.1-11.4-16.6-22.9-3.6-34.9 14.3-13.2 25.9-3 35.4 6.5l156.2 156.5 159.4-154.8c11.4-10.3 23.1-17.5 32.9-8.9 12 10.4 7.3 21.2-4 33.8l-157.5 158.6 155.7 162.4c9.6 11.2 12.8 22.1 3.9 30.8zM479.76 357.2z"  horiz-adv-x="1099" />

    
    <glyph glyph-name="success" unicode="&#58902;" d="M748.16 524.3c10 12.4 10.7 24.4 1.1 31.7-14.3 9.1-23.1 3.1-33.1-9.3L472.86 250.29999999999995 352.06 362.6c-13 11.9-24.7 17-36.2 7.2-8.5-10.3-7.2-16.4 3.6-28.7l132.6-123.7c12.9-12.9 30.5-12.7 43.4-1.3C505.56 224.79999999999995 748.16 524.3 748.16 524.3z"  horiz-adv-x="1099" />

    
    <glyph glyph-name="yonghuming" unicode="&#58900;" d="M511.946788-61.11466c246.968811 0 447.907263 200.939475 447.907263 447.907263 0 246.964718-200.939475 447.90317-447.907263 447.90317-246.963695 0-447.90317-200.938452-447.90317-447.90317C64.044642 139.824815 264.979-61.11466 511.946788-61.11466L511.946788-61.11466 511.946788-61.11466zM511.946788 778.71069c216.120222 0 391.918088-175.801958 391.918088-391.918088 0-216.111013-175.796842-391.923204-391.918088-391.923204-216.116129 0-391.918088 175.812191-391.918088 391.923204C120.029724 602.908732 295.831682 778.71069 511.946788 778.71069L511.946788 778.71069 511.946788 778.71069zM511.946788 681.969369c96.544847 0 174.835957-77.628008 174.835957-173.416632 0-95.759971-78.257342-173.382862-174.835957-173.382862-96.573499 0-174.801165 77.628008-174.801165 173.382862C337.146647 604.342384 415.408081 681.969369 511.946788 681.969369L511.946788 681.969369 511.946788 681.969369zM511.946788 384.732687c68.967768 0 124.885312 55.460126 124.885312 123.853819 0 68.419276-55.917544 123.850749-124.885312 123.850749s-124.880195-55.461149-124.880195-123.850749C387.066593 440.163137 442.97902 384.732687 511.946788 384.732687L511.946788 384.732687 511.946788 384.732687zM511.946788 384.732687c137.966235 0 249.770624-110.897739 249.770624-247.710708l-49.960879 0c0 109.414969-89.453335 198.147896-199.809745 198.147896-110.351294 0-199.809745-88.732927-199.809745-198.147896l-49.955762 0C262.181281 273.835971 373.98567 384.732687 511.946788 384.732687L511.946788 384.732687 511.946788 384.732687zM511.946788 384.732687"  horiz-adv-x="1024" />

    
    <glyph glyph-name="iconfkzt" unicode="&#58893;" d="M849.938 633.784c-61.665 0-111.67-49.713-111.67-111.012 0-21.94 6.404-42.389 17.449-59.608l-76.685-76.685c-22.715 15.925-50.424 25.281-80.341 25.281-34.929 0-66.859-12.749-91.339-33.821l-34.43 34.429c7.966 14.188 12.513 30.531 12.513 47.934 0 54.421-44.395 98.547-99.133 98.547s-99.109-44.127-99.109-98.547c0-12.932 2.51-25.279 7.065-36.592l-58.317-58.309c-17.715 11.747-38.993 18.601-61.881 18.601-61.689 0-111.67-49.714-111.67-111.012 0-61.325 49.981-111.012 111.67-111.012 61.665 0 111.671 49.689 111.671 111.012 0 18.445-4.533 35.837-12.544 51.146l55.788 55.788c16.183-11.426 35.965-18.144 57.328-18.144 16.99 0 32.981 4.252 46.961 11.739l39.853-39.848c-8.981-18.332-14.024-38.92-14.024-60.682 0-76.642 62.494-138.772 139.6-138.772s139.576 62.13 139.576 138.772c0 26.885-7.696 51.981-21.006 73.24l79.122 79.111c15.901-8.655 34.149-13.579 53.555-13.579 61.69 0 111.671 49.689 111.671 111.011 0 61.3-49.981 111.013-111.671 111.013z"  horiz-adv-x="1024" />

    
    <glyph glyph-name="cuowuguanbi2" unicode="&#58925;" d="M325.333 164.215c-8.602 0-17.204 3.010-23.226 9.462-13.333 12.903-13.333 33.979 0 46.882l163.441 163.441-163.441 163.441c-13.333 12.903-13.333 33.548 0 46.451 12.903 13.333 33.548 13.333 46.451 0l163.441-163.441 163.441 163.441c12.903 13.333 33.979 13.333 46.882 0 12.903-12.903 12.903-33.548 0-46.451l-163.441-163.441 163.441-163.441c12.903-12.903 12.903-33.979 0-46.882-6.452-6.452-15.053-9.462-23.656-9.462-8.172 0-16.774 3.010-23.226 9.462l-163.441 163.441-163.441-163.441c-6.452-6.452-14.624-9.462-23.226-9.462zM512 864c-264.946 0-480-215.054-480-480 0-265.376 215.054-480 480-480 265.376 0 480 214.624 480 480 0 264.946-214.624 480-480 480v0z"  horiz-adv-x="1024" />

    
    <glyph glyph-name="xuanzhong" unicode="&#58966;" d="M512 895.653099c-282.578844 0-511.653099-229.076302-511.653099-511.653099 0-282.578844 229.074256-511.653099 511.653099-511.653099 282.576797 0 511.653099 229.074256 511.653099 511.653099C1023.653099 666.57782 794.576797 895.653099 512 895.653099zM792.560884 528.700613 448.857914 184.997644c-7.506974-7.506974-17.411555-11.205203-27.306926-11.159154-9.894348-0.045025-19.800975 3.65218-27.307949 11.159154L231.43707 347.804636c-14.923898 14.923898-14.923898 39.3451 0 54.267974 14.923898 14.923898 39.3451 14.923898 54.268998 0l135.843898-135.843898 316.741921 316.741921c14.923898 14.923898 39.3451 14.923898 54.268998 0S807.485805 543.624511 792.560884 528.700613z"  horiz-adv-x="1024" />

    
    <glyph glyph-name="plus" unicode="&#59043;" d="M847.657955 354.418409L541.482727 354.418409l0-307.008182c0-15.95-12.931818-28.885227-28.886364-28.885227-15.957955 0-28.889773 12.935227-28.889773 28.885227L483.706591 354.418409 175.865455 354.418409c-15.953409 0-28.885227 12.934091-28.885227 28.892045 0 15.954545 12.931818 28.888636 28.885227 28.888636l307.841364 0L483.706818 719.205c0 15.957955 12.931818 28.890909 28.889773 28.890909 15.954545 0 28.886364-12.935227 28.886364-28.890909l0-307.006136 306.175455 0c15.953409 0 28.889773-12.936364 28.889773-28.888636C876.547727 367.35249999999996 863.611364 354.418409 847.657955 354.418409z"  horiz-adv-x="1024" />

    
    <glyph glyph-name="cuowu" unicode="&#58918;" d="M64.383234 384C64.383234 631.212171 264.787829 831.616766 512 831.616766 759.212171 831.616766 959.616766 631.212171 959.616766 384 959.616766 136.787829 759.212171-63.616766 512-63.616766 264.787829-63.616766 64.383234 136.787829 64.383234 384ZM474.232379 124.754876C476.408718 98.644488 490.551372 85.587877 516.663176 85.587877 542.773564 85.587877 556.917635 98.644488 559.092556 124.754876 556.917635 150.866681 542.773564 165.009334 516.663176 167.185673 490.551372 165.009334 476.408718 150.866681 474.232379 124.754876ZM480.759977 284.685252C480.759977 258.573446 492.72771 245.518253 516.663176 245.518253 540.597226 245.518253 552.56496 258.573446 552.56496 284.685252L552.56496 646.975382C552.56496 673.085769 540.597226 686.142381 516.663176 686.142381 492.72771 686.142381 480.759977 673.085769 480.759977 646.975382L480.759977 284.685252Z"  horiz-adv-x="1024" />

    
    <glyph glyph-name="shanchu" unicode="&#58910;" d="M572.018 174.28700000000003L572.018 503.831c0 38.402 60 38.402 60 0l0-329.544C632.013 135.88199999999995 572.018 135.88199999999995 572.018 174.28700000000003L572.018 174.28700000000003 572.018 174.28700000000003zM391.976 174.28700000000003L391.976 503.831c0 38.402 60.022 38.402 60.022 0l0-329.544C451.999 135.88199999999995 391.976 135.88199999999995 391.976 174.28700000000003L391.976 174.28700000000003 391.976 174.28700000000003zM902.083 653.631l-150.02 0 0 59.94c0 49.625-40.345 89.86-89.095 89.86L361.976 803.431c-49.702 0-90.02-40.235-90.02-89.86l0-59.94-150.02 0c-38.462 0-38.462-59.887 0-59.887l780.141 0C940.518 593.7429999999999 940.518 653.631 902.083 653.631L902.083 653.631 902.083 653.631zM331.979 713.571c0 15.915 14.057 29.972 29.997 29.972l300.992 0c15.94 0 29.07-12.177 29.07-29.972l0-59.94L331.979 653.631 331.979 713.571 331.979 713.571zM722.038-35.428L301.952-35.428c-49.675 0-89.992 40.23-89.992 89.86L211.96 503.831c0 17.797 14.057 29.972 29.997 29.972 15.942 0 30-12.175 30-29.972l0-449.399c0-15.89 14.082-29.94 29.995-29.94l420.086 0c15.94 0 30.02 14.05 30.02 29.94L752.058 502.904c0 39.332 60 39.332 60 0l0-448.476C812.058 4.802000000000021 771.743-35.428 722.038-35.428L722.038-35.428z"  horiz-adv-x="1024" />

    
    <glyph glyph-name="dagou" unicode="&#58887;" d="M887.904 597.792c-12.864 12.064-33.152 11.488-45.216-1.408L415.936 142.016l-233.12 229.696c-12.608 12.416-32.864 12.288-45.28-0.32-12.416-12.576-12.256-32.864 0.352-45.248l256.48-252.672c0.096-0.096 0.224-0.128 0.32-0.224s0.128-0.224 0.224-0.32c2.016-1.92 4.448-3.008 6.784-4.288 1.152-0.672 2.144-1.664 3.36-2.144 3.776-1.472 7.776-2.24 11.744-2.24 4.192 0 8.384 0.832 12.288 2.496 1.312 0.544 2.336 1.664 3.552 2.368 2.4 1.408 4.896 2.592 6.944 4.672 0.096 0.096 0.128 0.256 0.224 0.352 0.064 0.096 0.192 0.128 0.288 0.224L889.28 552.576c12.16 12.832 11.488 33.088-1.376 45.216z"  horiz-adv-x="1024" />

    
    <glyph glyph-name="jiazai" unicode="&#58923;" d="M512.032002 658.894819a29.310168 29.310168 0 0 0-29.310168 29.246172V866.689832a29.310168 29.310168 0 0 0 58.620336 0v-178.548841A29.310168 29.310168 0 0 0 512.032002 658.894819zM512.032002-128a29.310168 29.310168 0 0 0-29.310168 29.310168v178.484845a29.310168 29.310168 0 1 0 58.620336 0v-178.548841A29.310168 29.310168 0 0 0 512.032002-128z m482.657834 482.657834h-178.484845a29.310168 29.310168 0 1 0 0 58.620336h178.548841a29.310168 29.310168 0 1 0 0-58.620336z m-786.830823 0H29.310172a29.310168 29.310168 0 0 0 0 58.620336h178.548841a29.310168 29.310168 0 0 0 0-58.620336z m519.263546 215.090557a29.182176 29.182176 0 0 0-20.734704 49.980876l126.264108 126.264108a29.310168 29.310168 0 1 0 41.405412-41.405412l-126.264108-126.264108a29.182176 29.182176 0 0 0-20.670708-8.575464zM170.741333 13.431161a29.182176 29.182176 0 0 0-20.734704 49.980876l126.264108 126.264108a29.246172 29.246172 0 1 0 41.405412-41.405412L191.412041 21.942629a29.182176 29.182176 0 0 0-20.670708-8.575464z m682.581338 0a29.182176 29.182176 0 0 0-20.670708 8.575464l-126.264108 126.264108a29.310168 29.310168 0 1 0 41.405412 41.405412l126.264108-126.264108a29.310168 29.310168 0 0 0-20.734704-49.91688zM297.005441 569.748391a29.182176 29.182176 0 0 0-20.670708 8.575464L150.006629 704.587963a29.310168 29.310168 0 1 0 41.405412 41.405412l126.264108-126.264108a29.310168 29.310168 0 0 0-20.734704-49.91688z"  horiz-adv-x="1024" />

    
    <glyph glyph-name="yiwen" unicode="&#58930;" d="M512 835.730286A452.242286 452.242286 0 0 0 963.730286 384 452.242286 452.242286 0 0 0 512-67.730286 452.242286 452.242286 0 0 0 60.269714 384 452.315429 452.315429 0 0 0 512 835.730286zM512 896a512 512 0 1 1 0-1024A512 512 0 0 1 512 896z m-42.934857-753.517714a42.934857 42.934857 0 1 1 85.869714 0 42.934857 42.934857 0 0 1-85.869714 0z m36.644571 96.621714a30.134857 30.134857 0 0 0-30.061714 30.134857c0 118.491429 105.106286 168.374857 105.618286 168.594286 25.819429 20.553143 40.740571 42.861714 37.229714 75.337143-2.486857 23.405714-28.452571 52.516571-63.926857 59.977143-36.937143 8.484571-83.382857-3.803429-106.934857-24.502858-30.354286-26.697143-31.670857-67.364571-31.670857-67.803428a30.208 30.208 0 0 0-30.061715-29.549714H385.462857a30.061714 30.061714 0 0 0-29.696 30.208c0 2.706286 1.024 66.852571 51.273143 111.689142 37.522286 33.499429 97.426286 53.394286 165.888 37.595429 118.857143-39.716571 110.299429-125.366857 101.010286-156.964571-8.777143-30.281143-24.502857-66.194286-69.12-90.989715l0.146285-0.365714c-2.706286-1.243429-69.046857-33.792-69.046857-113.152a30.208 30.208 0 0 0-30.208-30.208z"  horiz-adv-x="1024" />

    
    <glyph glyph-name="password2" unicode="&#58921;" d="M512-128c-0.063-0-0.137-0-0.211-0-71.946 0-140.451 14.731-202.664 41.342-135.759 58.925-241.182 174.658-286.244 317.213-8.151 12.849-22.882 81.427-22.882 153.445 0 72.018 14.731 140.596 41.344 202.884 58.923 135.75 174.656 241.174 317.211 286.235 12.849 8.151 81.427 22.882 153.445 22.882 72.018 0 140.596-14.731 202.884-41.344 135.75-58.923 241.174-174.656 286.235-317.211 8.151-12.849 22.882-81.427 22.882-153.445 0-72.018-14.731-140.596-41.344-202.884-58.923-135.75-174.656-241.174-317.211-286.235-12.783-8.15-81.288-22.881-153.234-22.881-0.074 0-0.148 0-0.222 0zM512 841.514c-252.236-0-456.713-204.478-456.713-456.713 0-252.236 204.478-456.713 456.713-456.713 252.236 0 456.713 204.478 456.713 456.713-0.455 252.053-204.661 456.259-456.671 456.713zM511.199 343.136c-0.024 0-0.052 0-0.080 0-20.754 0-37.579-16.825-37.579-37.579 0-0.028 0-0.056 0-0.085-0.001-0.096-0.002-0.215-0.002-0.335 0-13.935 7.683-26.075 19.043-32.416l0.188-61.793c0-10.62 8.61-19.23 19.23-19.23s19.23 8.61 19.23 19.23v61.696c11.555 6.593 19.22 18.832 19.23 32.862-1.588 20.693-18.452 36.98-39.26 37.648zM681.705 456.192h-279.076v84.051c0.641 8.974 9.535 101.278 110.252 101.278s108.009-93.426 108.57-104.163c0.531-12.866 11.090-23.095 24.038-23.095 13.286 0 24.057 10.771 24.057 24.057 0 0.338-0.007 0.675-0.021 1.009-2.162 52.194-37.577 150.267-156.723 150.267-148.552 0-158.167-145.828-158.247-147.27s0-0.881 0-1.282v-84.853h-12.259c-41.862-0-75.798-33.936-75.798-75.798 0 0 0 0 0 0v-226.193c0.182-41.724 34.048-75.478 75.798-75.478 0 0 0 0 0.001 0l339.41-0c41.862 0 75.798 33.936 75.798 75.798v225.873c0 41.862-33.936 75.798-75.798 75.798zM709.589 160.29c0-19.648-15.928-35.576-35.576-35.576h-324.026c-19.648 0-35.576 15.928-35.576 35.576v214.014c0 19.648 15.928 35.576 35.576 35.576h324.026c19.648 0 35.576-15.928 35.576-35.576z"  horiz-adv-x="1024" />

    
    <glyph glyph-name="jiantou" unicode="&#58954;" d="M346.52382345477406 791.5616946732558c-12.257495055447652 12.257495055447652-30.6437359627898 12.257495055447652-42.90123101823747 0s-12.257495055447652-30.6437359627898 0-42.90123101823747L668.2830560915551 384 303.6225924365366 19.339536344981525c-12.257495055447652-12.257495055447652-12.257495055447652-30.6437359627898 0-42.90123101823747 6.128747527723826-6.128747527723826 15.3218679813949-9.193120453671073 21.450615509118734-9.193120453671073s15.3218679813949 3.064372925947246 21.450615509118734 9.193120453671073l386.1110791641372 386.1110791641372c12.257495055447652 12.257495055447652 12.257495055447652 30.6437359627898 0 42.90123101823747L346.52382345477406 791.5616946732558z"  horiz-adv-x="1024" />

    
    <glyph glyph-name="shijian" unicode="&#58997;" d="M502.897778 820.906667C257.137778 820.906667 59.164444 622.933333 59.164444 377.173333s200.248889-443.733333 443.733334-443.733333c245.76 0 443.733333 197.973333 443.733333 443.733333S746.382222 820.906667 502.897778 820.906667z m288.995555-577.991111c-6.826667-13.653333-18.204444-20.48-31.857777-20.48-4.551111 0-9.102222 0-13.653334 2.275555l-261.688889 118.328889c-11.377778 4.551111-20.48 18.204444-20.48 31.857778V620.657778c0 18.204444 15.928889 34.133333 34.133334 34.133333s34.133333-15.928889 34.133333-34.133333V395.377778L773.688889 286.151111c18.204444-6.826667 25.031111-25.031111 18.204444-43.235555z"  horiz-adv-x="1024" />

    
    <glyph glyph-name="ziyuan" unicode="&#58882;" d="M919.375348 692.332767a173.604298 173.604298 0 0 1-231.519027-163.672061L334.100842 358.819466l-69.609588-117.410224L416.034796 188.152872l17.738135 50.514514 34.11933 16.381195 16.395184-34.11933L552.568072 253.71962l-16.381195 34.133319 68.252648 32.776379 16.409174-34.133319 68.252649 32.77638-16.381196 34.133319 80.744884 38.777688a173.940036 173.940036 0 1 1 165.910312 300.149381z m-7.805898-182.291507a53.536152 53.536152 0 1 0-32.77638 68.252649 53.536152 53.536152 0 0 0 32.77638-68.252649zM935.043101 318.111286A427.65971 427.65971 0 0 0 511.999783-44.065609 428.205283 428.205283 0 0 0 345.404007 778.491419a427.449874 427.449874 0 0 0 425.883098-53.8579 219.544388 219.544388 0 0 0 102.693727 21.459226A510.391041 510.391041 0 0 1 511.999783 895.999566C229.224821 895.999566 0 666.774745 0 383.999783s229.224821-511.999783 511.999783-511.999783c279.36163 0 506.404157 223.741107 511.887871 501.801755a220.383732 220.383732 0 0 0-88.844553-55.690469z"  horiz-adv-x="1035" />

    
    <glyph glyph-name="zanwushuju" unicode="&#58881;" d="M103.424 274.36800000000005h13.632c3.84 0 5.76-3.968 5.76-7.872 0-3.84-3.904-5.888-5.76-5.888h-13.632v-13.696c0-3.776-4.032-5.76-5.888-5.76-1.92 0-3.904 0-5.888 1.984-1.92 1.856-1.92 1.856-1.92 3.776v13.696h-13.696c-3.84 0-5.824 4.032-5.824 5.888 0 3.968 3.904 7.872 5.824 7.872h13.696v13.696c0 3.904 3.904 5.824 7.808 5.824 3.84 0 5.888-1.92 5.888-5.824v-13.696z m903.04 54.528v13.76c0 1.856 0 4.032-1.856 4.032-2.048 1.856-3.904 1.856-5.952 1.856-3.904 0-5.824-1.856-5.824-5.888v-13.76h-13.696c-1.92 0-3.968 0-5.76-1.728-1.984-2.112-1.984-4.032-1.984-5.888 0-4.032 3.84-6.08 5.824-6.08h13.76v-13.568c0-3.776 3.84-5.888 5.76-5.888 4.032 0 7.872 3.968 7.872 5.888v13.568h13.568c3.84 0 5.824 3.968 5.824 6.08 0 3.776-3.84 7.616-5.888 7.616h-11.648z m-497.344-224.192H163.776a13.888 13.888 0 0 0-9.728 3.968 14.592 14.592 0 0 0-3.84 9.728c0 7.808 5.824 13.504 13.568 13.504h62.4a63.296 63.296 0 0 0-7.744 27.392V555.264c0 13.632 5.888 29.248 15.616 38.976a54.144 54.144 0 0 0 38.976 15.616h41.024v13.632c0 13.696 5.76 29.312 15.616 39.04a54.592 54.592 0 0 0 39.04 15.616h329.6c13.696 0 29.312-5.888 38.976-15.616a54.656 54.656 0 0 0 15.68-39.04v-397.888a45.824 45.824 0 0 0-7.936-27.456h76.032c7.808 0 13.76-5.632 13.76-13.568a13.44 13.44 0 0 0-13.76-13.568h-163.84v-13.632a44.544 44.544 0 0 0-7.68-27.392h7.68c7.936 0 13.76-5.824 13.76-13.568a13.44 13.44 0 0 0-13.76-13.76H585.088a26.688 26.688 0 0 0-3.84-33.088 25.024 25.024 0 0 0-19.456-7.936 25.024 25.024 0 0 0-19.584 7.936l-33.088 35.136z m50.624 27.2h43.008a26.816 26.816 0 0 1 27.328 27.392V557.184c0 15.616-11.84 27.328-25.536 27.328h-331.52a27.84 27.84 0 0 1-27.2-27.328v-397.952c0-15.616 11.584-27.392 27.2-27.392h208.704l-7.808 7.936a29.184 29.184 0 0 0-7.808 27.392l-13.696 13.568a98.688 98.688 0 0 0-130.624 13.568 96.32 96.32 0 0 0 3.84 130.688 96.384 96.384 0 0 0 130.816 3.904c38.912-33.152 44.8-89.536 13.696-130.752l13.568-13.568a28.928 28.928 0 0 0 27.264-7.68l48.768-44.992z m97.536 68.288h41.024a26.688 26.688 0 0 1 27.264 27.328V625.408a26.624 26.624 0 0 1-27.264 27.328H370.56a26.624 26.624 0 0 1-27.2-27.328v-15.616h259.456c13.632 0 29.184-5.824 38.848-15.616a54.272 54.272 0 0 0 15.616-38.976v-355.008zM175.552 703.488h19.456c5.888 0 9.728-3.904 9.728-9.728s-3.84-9.792-9.728-9.792h-19.456v-19.456c0-5.888-3.904-9.792-9.728-9.792-2.048 0-5.888 1.92-7.872 3.904s-1.92 3.904-1.92 7.808v19.456h-21.44c-1.984 0-5.888 0-7.808 3.904-2.048 1.984-3.968 3.904-3.968 7.808 0 5.888 3.968 9.728 9.728 9.728h21.44v19.584c0 5.888 3.968 9.728 9.728 9.728 5.888 0 9.728-3.84 9.728-9.728v-23.424h2.112zM13.632 118.39999999999998c0 7.808 5.824 13.504 13.568 13.504h81.92c7.936 0 13.696-5.696 13.696-13.504 0-7.872-5.76-13.696-13.696-13.696H27.2a14.016 14.016 0 0 0-9.728 3.968 14.784 14.784 0 0 0-3.84 9.728z m433.024 87.68a68.288 68.288 0 0 1 0 97.536 68.288 68.288 0 0 1-97.536 0 68.352 68.352 0 0 1 0-97.536 68.16 68.16 0 0 1 97.536 0zM302.272 527.9359999999999c0 7.808 5.888 13.632 13.632 13.632h150.208a13.44 13.44 0 0 0 13.696-13.632 13.376 13.376 0 0 0-13.696-13.696H315.968a15.104 15.104 0 0 0-9.728 3.968c-3.968 3.84-3.968 7.744-3.968 9.728z m0-68.288c0 7.808 5.888 13.632 13.632 13.632H534.4a13.44 13.44 0 0 0 13.824-13.632 13.44 13.44 0 0 0-13.824-13.696H315.968a15.04 15.04 0 0 0-9.728 3.904c-3.968 3.968-3.968 5.824-3.968 9.792z m0-68.288c0 7.872 5.888 13.696 13.632 13.696H411.52a13.44 13.44 0 0 0 13.632-13.696 13.312 13.312 0 0 0-13.632-13.632H315.968a14.72 14.72 0 0 0-9.728 3.968c-3.968 1.856-3.968 5.76-3.968 9.664zM40.896 473.28c-15.616 0-27.264 7.808-35.072 21.44-7.808 13.632-7.808 29.312 0 40.96a40.896 40.896 0 0 0 35.072 21.44c23.488 0 41.024-17.536 41.024-40.96 0-23.296-17.536-42.88-41.024-42.88z m0 21.44a20.416 20.416 0 0 1 17.536 9.728 17.856 17.856 0 0 1 0 19.584c-3.84 7.872-9.728 11.712-17.536 11.712a21.632 21.632 0 0 1-21.376-21.504c1.92-11.648 9.792-19.52 21.376-19.52z m850.496 60.544c-15.552 0-29.44 7.744-35.072 21.44a38.464 38.464 0 0 0 0 40.96c7.68 11.776 21.376 21.44 35.072 21.44 23.36 0 40.96-17.536 40.96-40.96-0.064-23.424-19.456-42.88-40.96-42.88z m0 21.44a20.736 20.736 0 0 1 17.536 9.728c3.968 5.888 3.968 13.696 0 21.44a20.48 20.48 0 0 1-17.536 9.728 21.568 21.568 0 0 1-21.44-21.376c0-9.792 9.728-19.52 21.44-19.52z m0 0"  horiz-adv-x="1024" />

    
    <glyph glyph-name="yonghuming1" unicode="&#59072;" d="M988.8-32c0-25.6-19.2-44.8-44.8-44.8H73.6c-25.6 0-44.8 19.2-44.8 44.8 0 0 0 163.2 118.4 220.8 76.8 38.4 48 9.6 140.8 48 92.8 38.4 115.2 51.2 115.2 51.2v89.6s-35.2 25.6-44.8 108.8c-22.4-6.4-28.8 25.6-28.8 44.8 0 19.2-12.8 80 12.8 73.6-6.4 41.6-9.6 76.8-6.4 96 6.4 67.2 73.6 140.8 176 144 118.4-6.4 166.4-76.8 172.8-144 3.2-19.2-3.2-57.6-6.4-96 25.6 6.4 16-54.4 12.8-73.6 0-19.2-9.6-51.2-28.8-44.8-9.6-83.2-44.8-108.8-44.8-108.8v-86.4s22.4-12.8 115.2-51.2c92.8-38.4 64-9.6 140.8-48 115.2-60.8 115.2-224 115.2-224"  horiz-adv-x="1024" />

    
    <glyph glyph-name="w-mins" unicode="&#58885;" d="M903.053 325.25h-782.007c-32.391 0-58.649 26.256-58.649 58.647s26.256 58.661 58.649 58.661h782.009c32.406 0 58.649-26.27 58.649-58.661-0.001-32.393-26.245-58.647-58.649-58.647z"  horiz-adv-x="1024" />

    
    <glyph glyph-name="tianjia" unicode="&#58880;" d="M955.16444444 456.81777778L554.66666666 456.81777778 554.66666666 857.31555555C554.66666666 877.70453333 538.64675555 893.72444445 518.25777777 893.72444445 497.86879999 893.72444445 481.84888888 877.70453333 481.84888888 857.31555555L481.84888888 456.81777778 81.35111111 456.81777778C60.96213333 456.81777778 44.94222221 440.79786667 44.94222221 420.40888889 44.94222221 400.01991111 60.96213333 384 81.35111111 384L481.84888888 384l0-400.49777778C481.84888888-36.886755549999975 497.86879999-52.90666667000005 518.25777777-52.90666667000005 538.64675555-52.90666667000005 554.66666666-36.886755549999975 554.66666666-16.49777777999998L554.66666666 384l400.49777778 0C975.55342221 384 991.57333333 400.01991111 991.57333333 420.40888889 991.57333333 440.79786667 975.55342221 456.81777778 955.16444444 456.81777778z"  horiz-adv-x="1024" />

    
    <glyph glyph-name="zanwushuju-" unicode="&#58958;" d="M219.306667 734.72c5.973333-2.56 8.675556-7.111111 8.248889-13.653333-0.284444-4.835556 0.142222-9.671111-0.142223-14.506667-0.142222-2.986667 0.568889-4.124444 3.84-3.982222 5.404444 0.284444 10.951111 0.142222 16.355556 0 7.395556-0.284444 11.946667-4.408889 11.946667-10.666667 0-6.4-4.977778-10.808889-12.515556-10.808889-5.262222-0.142222-10.524444-0.142222-15.786667 0-2.986667 0.142222-4.124444-0.711111-3.982222-3.84 0.284444-5.688889 0.142222-11.235556 0-16.924444-0.142222-6.826667-4.408889-11.377778-10.666667-11.377778-5.973333 0-10.24 4.266667-10.524444 10.808889-0.284444 5.688889-0.284444 11.235556 0 16.924444 0.142222 3.271111-0.711111 4.551111-4.124444 4.266667-5.262222-0.284444-10.524444-0.142222-15.786667 0-7.395556 0.142222-12.373333 4.551111-12.515556 11.093333-0.142222 5.831111 4.835556 10.24 12.231111 10.524445 5.262222 0.142222 10.524444 0.142222 15.786667 0 3.271111-0.142222 4.551111 0.853333 4.408889 4.266666-0.284444 4.835556 0.142222 9.671111-0.142222 14.506667-0.426667 6.684444 2.133333 11.093333 8.533333 13.368889h4.835556zM979.911111 289.848889h-1.137778c-1.706667 2.133333-1.706667 4.124444 0.284445 5.973333 0.426667 0.284444 0.711111 0.142222 0.995555-0.142222-0.142222-1.991111-0.142222-3.84-0.142222-5.831111zM847.36 593.208889c-8.675556-14.933333-16.924444-29.44-25.315556-43.804445-0.995556-1.706667-1.848889-3.413333-2.986666-4.977777-3.271111-5.12-8.675556-6.684444-13.511111-4.124445-5.12 2.702222-6.826667 8.533333-3.697778 14.08 5.973333 10.666667 12.088889 21.191111 18.204444 31.857778 5.973333 10.24 11.804444 20.622222 17.777778 30.862222 4.977778 8.533333 13.795556 8.675556 18.773333 0.142222 11.946667-20.48 23.751111-41.102222 35.555556-61.582222 3.555556-6.257778 2.417778-12.088889-2.844444-15.217778-5.262222-2.986667-10.951111-0.995556-14.506667 5.262223-9.102222 15.502222-18.062222 31.288889-27.448889 47.502222zM763.733333 77.368889h-40.817777c-9.671111 0-16.213333 5.973333-16.071112 14.506667 0.142222 8.248889 6.4 14.08 16.071112 14.08 27.448889 0.142222 54.755556 0.142222 82.204444 0 10.097778 0 16.071111-5.688889 16.071111-14.506667-0.142222-8.533333-6.4-14.08-16.497778-14.08H763.733333zM152.177778 236.373333c-5.973333-10.382222-11.377778-19.911111-16.924445-29.44-2.986667-5.262222-6.542222-6.968889-10.097777-4.408889-4.408889 2.986667-3.555556 6.684444-1.137778 10.666667 7.253333 12.515556 14.506667 25.173333 21.76 37.831111 3.982222 6.826667 9.102222 6.684444 13.084444-0.142222 7.253333-12.515556 14.506667-25.173333 21.76-37.831111 2.417778-3.982222 2.986667-7.822222-1.564444-10.524445-4.693333-2.702222-7.537778 0.284444-9.813334 4.124445-5.546667 9.528889-10.951111 19.057778-17.066666 29.724444zM978.915556 295.964444c-0.142222-1.991111-0.142222-3.982222-0.284445-5.973333-4.835556-4.693333-8.248889-4.408889-11.52 0.995556-5.831111 9.813333-11.377778 19.768889-17.635555 30.577777-4.977778-8.533333-9.528889-16.497778-14.08-24.462222-1.422222-2.56-2.702222-5.12-4.408889-7.537778-1.991111-2.844444-4.835556-3.982222-8.106667-2.133333-3.413333 1.848889-4.693333 4.977778-2.844444 8.391111 7.964444 14.222222 15.928889 28.444444 24.32 42.382222 2.844444 4.551111 8.248889 3.84 11.235555-1.422222 7.964444-13.511111 15.644444-27.164444 23.324445-40.817778zM924.444444 121.6c-9.386667 0-9.386667 0-9.528888-9.528889 0-8.675556-2.133333-12.231111-7.253334-12.231111-4.835556-0.142222-6.968889 3.697778-6.968889 12.515556 0 9.244444 0 9.244444-9.528889 9.244444-8.817778 0-11.662222 1.706667-11.662222 6.968889 0 5.404444 3.128889 7.253333 12.088889 7.253333 9.102222 0 9.102222 0 9.102222 8.96 0 8.675556 2.133333 12.231111 7.395556 12.231111 5.12 0 6.968889-3.413333 6.968889-12.373333v-0.568889c0-8.248889 0-8.248889 8.248889-8.248889h5.262222c4.977778-0.142222 7.822222-2.986667 7.822222-7.537778 0-4.551111-3.128889-6.968889-7.822222-6.542222-1.422222-0.142222-2.844444-0.142222-4.124445-0.142222zM130.417778 512.853333c-2.56 16.924444-12.942222 28.586667-29.297778 33.564445-17.351111 5.262222-32.284444 0.711111-44.942222-12.373334-5.262222-5.404444-6.826667-12.8-10.666667-18.915555v-17.493333c1.848889-0.711111 1.564444-2.56 1.991111-3.982223 8.817778-27.306667 38.968889-38.826667 63.431111-23.751111 15.644444 9.813333 22.186667 24.888889 19.484445 42.951111z m-42.097778-28.16c-11.662222 0-21.617778 9.813333-21.475556 21.475556 0 11.52 9.528889 21.048889 21.048889 21.191111 11.946667 0.142222 21.617778-9.244444 21.76-21.048889 0-11.804444-9.528889-21.475556-21.333333-21.617778zM427.52 434.631111h-112.497778c-6.257778 0-11.093333 2.133333-14.08 7.537778-2.702222 5.262222-2.275556 10.382222 1.28 15.36 2.133333 3.128889 5.12 4.835556 8.675556 5.262222 2.275556 0.284444 4.693333 0.426667 6.968889 0.426667h219.875555c1.991111 0 3.84 0 5.831111-0.284445 7.822222-0.995556 13.084444-6.826667 12.8-14.648889-0.284444-7.395556-5.688889-13.084444-13.226666-13.653333-1.706667-0.142222-3.555556 0-5.262223 0h-110.364444zM392.106667 506.026667h-76.942223c-6.826667 0-12.088889 2.56-14.791111 9.102222-2.417778 5.831111-0.711111 11.093333 3.555556 15.502222 2.986667 3.128889 6.968889 4.124444 11.093333 4.124445h154.453334c9.244444 0 15.502222-6.257778 15.36-14.648889-0.142222-8.248889-6.115556-13.937778-15.36-14.08h-77.368889zM363.235556 391.68h48.924444c9.671111 0 15.502222-5.546667 15.502222-14.222222 0-8.391111-5.831111-14.08-15.217778-14.08-32.995556-0.142222-66.133333-0.142222-99.128888 0-7.68 0-13.226667 5.262222-14.08 12.8-0.853333 6.4 3.84 13.368889 10.24 15.075555 2.275556 0.568889 4.551111 0.568889 6.968888 0.568889 15.644444-0.142222 31.288889-0.142222 46.791112-0.142222zM855.324444 168.248889c-2.56 6.684444-7.822222 9.244444-14.648888 9.244444H763.448889c4.693333 9.244444 7.253333 18.062222 7.253333 27.591111 0 138.524444 0.142222 277.048889 0 415.573334 0 31.857778-24.746667 56.604444-56.746666 56.604444-114.631111 0.142222-229.262222 0.142222-343.751112 0-27.164444 0-49.208889-18.346667-55.324444-44.657778-1.564444-6.826667-1.564444-13.937778-1.28-20.906666 0.284444-4.408889-0.711111-5.973333-5.546667-5.831111-11.804444 0.426667-23.751111 0.142222-35.555555 0.142222-8.817778-0.142222-17.493333-1.137778-25.457778-5.12-22.328889-11.377778-33.422222-29.44-33.422222-54.897778 0.142222-133.262222 0.142222-266.524444 0-399.786667 0-13.653333-0.284444-27.164444 7.253333-39.395555-2.417778-1.28-4.551111-0.711111-6.684444-0.711111-18.631111 0-37.404444 0.142222-56.035556-0.142222-10.808889-0.142222-17.208889-7.395556-15.502222-17.066667 1.28-7.395556 7.111111-11.52 16.355555-11.52H486.4c9.955556 0 20.906667 2.417778 29.44-0.995556 8.391111-3.413333 14.08-12.942222 21.048889-19.768889 8.675556-8.391111 16.213333-18.488889 28.302222-22.471111h10.524445c10.24 3.128889 18.488889 8.533333 22.186666 19.2 2.844444 8.106667 1.564444 15.928889-1.991111 23.893334h8.675556c21.76 0 43.52-0.142222 65.422222 0 8.675556 0 14.791111 5.973333 14.933333 13.937777 0.142222 7.964444-5.688889 13.937778-14.364444 14.648889-2.275556 0.142222-4.693333-0.568889-7.111111 0.853334 4.835556 9.102222 7.111111 18.773333 7.111111 29.155555 0 12.942222 0.142222 12.942222 12.942222 12.942222h155.306667c4.977778 0 9.813333 0.568889 13.368889 4.408889 4.266667 4.408889 5.262222 9.528889 3.128888 15.075556z m-245.76-62.435556c-12.088889 0.711111-24.177778 0.284444-36.124444 0-3.555556 0-6.115556 0.995556-8.675556 3.555556-13.653333 13.937778-27.448889 27.591111-41.102222 41.386667-7.964444 7.964444-16.782222 13.226667-28.586666 10.666666-2.702222-0.568889-3.84 1.422222-5.262223 2.844445-3.128889 3.128889-7.68 5.831111-9.102222 9.671111-1.422222 4.124444 3.697778 7.537778 5.688889 11.235555 36.835556 66.56-8.391111 146.488889-84.48 149.333334-51.626667 1.991111-97.28-39.395556-101.973333-90.737778-4.693333-50.631111 31.004444-103.111111 91.875555-108.942222 22.755556-2.275556 43.946667 4.124444 63.004445 16.64 3.555556 2.417778 5.973333 2.702222 8.533333-0.995556 0.711111-1.137778 1.848889-1.991111 2.844444-2.844444 4.408889-3.555556 6.968889-7.395556 5.973334-13.795556-1.137778-7.68 2.417778-14.506667 7.68-20.053333 2.133333-2.275556 4.551111-4.124444 6.968889-6.257778-0.284444-0.568889-0.426667-1.137778-0.711111-1.564444H273.351111c-19.057778 0-31.004444 11.804444-31.004444 30.862222V548.266667c0 17.208889 11.804444 28.871111 29.013333 28.871111h341.475556c17.92 0 29.582222-11.377778 29.724444-29.44 0.142222-28.728889 0-57.6 0-86.328889 0-107.662222-0.142222-215.182222 0.142222-322.844445-0.142222-19.484444-13.226667-33.706667-33.137778-32.711111zM470.755556 234.24c-0.284444-39.111111-32.426667-71.111111-71.537778-70.968889-39.68 0.142222-71.537778 32.426667-71.111111 71.822222 0.284444 39.395556 32.426667 71.253333 71.395555 71.111111 39.253333-0.142222 71.395556-32.711111 71.253334-71.964444z m271.502222 179.057778v-203.093334c0-16.355556-7.253333-27.306667-20.622222-31.573333-3.128889-0.995556-6.115556-0.853333-9.244445-0.995555-12.088889-0.142222-24.177778 0.142222-36.124444-0.142223-4.693333-0.142222-5.688889 1.28-5.688889 5.831111 0.142222 95.857778 0.142222 191.857778 0.142222 287.715556 0 25.457778 0.142222 50.915556 0 76.515556-0.142222 26.453333-15.502222 48.213333-38.826667 55.608888-7.111111 2.275556-14.364444 2.986667-21.902222 2.986667-87.182222 0-174.364444 0-261.404444-0.142222-4.835556 0-6.968889 0.853333-6.4 6.115555 0.711111 5.404444-0.284444 10.808889 1.28 16.213334 3.271111 10.808889 12.8 18.915556 24.035555 20.053333 2.56 0.284444 4.977778 0.426667 7.537778 0.426667 111.502222 0 222.862222 0 334.364444 0.142222 10.666667 0 19.911111-2.417778 26.88-11.235556 5.12-6.542222 6.115556-14.08 6.115556-22.044444-0.142222-67.413333-0.142222-134.968889-0.142222-202.382222z"  horiz-adv-x="1024" />

    
    <glyph glyph-name="mins" unicode="&#58884;" d="M853.333 362.66700000000003c11.782 0 21.334 9.55 21.334 21.333 0 11.782-9.552 21.333-21.334 21.333H170.667c-11.782 0-21.334-9.55-21.334-21.333 0-11.782 9.552-21.333 21.334-21.333h682.666z"  horiz-adv-x="1024" />

    
    <glyph glyph-name="dizhi" unicode="&#58898;" d="M512.2128125-96c-180.6909375 0-375.4125 37.8384375-375.4125 120.744375 0 58.2459375 93.1096875 88.4315625 170.0625 103.3125a23.80875 23.80875 0 0 0 8.9278125-46.7671875c-99.485625-18.706875-132.6478125-46.3415625-132.6478125-56.120625 0-21.6825 111.39-73.126875 327.369375-73.126875s327.369375 51.01875 327.369375 73.126875c0 10.20375-34.8628125 38.2640625-137.750625 57.395625a23.80875 23.80875 0 0 0-19.1315625 27.635625 24.234375 24.234375 0 0 0 27.6346875 19.1315625C789.41375 114.45187499999997 885.5 84.69093750000002 885.5 25.169062499999995 887.1996875-58.161562499999945 692.90375-96 512.2128125-96zM512.2128125-18.621562499999982a29.7609375 29.7609375 0 0 0-24.6590625 12.7546875l-210.451875 309.9375a329.4946875 329.4946875 0 1 0 469.79625 0l-210.451875-309.9375a29.7609375 29.7609375 0 0 0-24.234375-12.7546875z m0 823.5253125a269.97375 269.97375 0 0 1-191.3203125-461.293125l3.40125-4.2515625 187.4934375-275.9259375 187.4934375 275.925 3.40125 4.2525A269.97375 269.97375 0 0 1 512.2128125 804.90375zM512.2128125 407.80875A154.756875 154.756875 0 1 0 666.96875 562.5646875a154.756875 154.756875 0 0 0-154.7559375-154.7559375z m0 250.415625A95.6596875 95.6596875 0 1 1 607.8725 562.565625a95.6596875 95.6596875 0 0 1-95.6596875 95.660625z"  horiz-adv-x="1024" />

    
    <glyph glyph-name="huaban" unicode="&#58888;" d="M502.650435 245.982609h18.69913a28.93913 28.93913 0 0 1 28.939131 28.93913v218.156522a28.93913 28.93913 0 0 1-28.939131 28.93913h-18.69913a28.93913 28.93913 0 0 1-28.939131-28.93913V272.695652a28.93913 28.93913 0 0 1 28.939131-26.713043z m66.782608 449.669565h-114.866086A77.022609 77.022609 0 0 1 378.434783 618.629565v-138.462608A77.467826 77.467826 0 0 1 435.867826 406.26087V599.485217a38.288696 38.288696 0 0 0 37.843478 38.288696h76.577392a38.288696 38.288696 0 0 0 37.843478-38.288696V406.26087a77.467826 77.467826 0 0 1 57.433043 73.906087V618.629565a77.022609 77.022609 0 0 1-76.132174 77.022609z m18.699131-527.137391a38.288696 38.288696 0 0 0-37.843478-38.288696h-76.577392a38.288696 38.288696 0 0 0-37.843478 38.288696V361.73913a77.467826 77.467826 0 0 1-57.433043-73.906087v-138.462608a77.022609 77.022609 0 0 1 76.132174-77.022609h114.866086a77.022609 77.022609 0 0 1 76.132174 77.022609v138.462608A77.467826 77.467826 0 0 1 588.132174 361.73913z"  horiz-adv-x="1024" />

    
    <glyph glyph-name="zhuangtai" unicode="&#58889;" d="M779.575652 584.3478259999999a89.043478 89.043478 0 0 1-89.043478-89.043478 86.372174 86.372174 0 0 1 13.801739-47.638261l-60.994783-61.885217a109.078261 109.078261 0 0 1-135.791304-6.678261l-26.713043 27.158261a75.686957 75.686957 0 0 1 10.24 38.288695 78.803478 78.803478 0 1 1-157.16174 0 69.89913 69.89913 0 0 1 5.787827-28.93913l-44.52174-46.747826a89.043478 89.043478 0 1 1 29.384348-33.391305l44.521739 44.521739a77.022609 77.022609 0 0 1 44.52174-14.692173 80.13913 80.13913 0 0 1 37.39826 9.349565l31.610435-32.055652a110.85913 110.85913 0 1 1 193.224348 10.24l62.775652 63.220869a89.043478 89.043478 0 0 1 44.521739-10.685217 89.043478 89.043478 0 0 1 0 178.086956"  horiz-adv-x="1024" />

    
    <glyph glyph-name="card" unicode="&#58890;" d="M756.869565 652.0208700000001a67.673043 67.673043 0 0 0 17.808696-44.52174v-551.624347A49.864348 49.864348 0 0 0 724.813913 5.5652169999999614h-391.791304a49.864348 49.864348 0 0 0-48.973913 50.309566V711.6800000000001A49.864348 49.864348 0 0 0 333.022609 762.434783h287.165217a70.344348 70.344348 0 0 0 44.521739-17.363479zM417.613913 286.497391h44.521739V317.217391h-44.521739v-30.72zM551.17913 286.497391h89.043479V317.217391h-89.043479v-30.72zM595.70087 197.45391299999994h44.521739V228.17391299999997h-44.521739v-30.72zM417.613913 197.45391299999994h44.521739V228.17391299999997h-44.521739v-30.72zM492.410435 615.5130429999999a15.137391 15.137391 0 0 1-30.274783 0v-106.852173a15.137391 15.137391 0 0 1 30.274783 0zM536.932174 615.5130429999999a15.137391 15.137391 0 0 1-30.274783 0v-106.852173a15.137391 15.137391 0 0 1 30.274783 0zM403.366957 615.5130429999999a15.137391 15.137391 0 0 1-30.274783 0v-106.852173a15.137391 15.137391 0 0 1 30.274783 0zM462.135652 94.60869600000001h30.274783v267.130434h-30.274783v-267.130434zM551.17913 94.60869600000001h30.274783v178.086956h-30.274783v-178.086956zM373.092174 172.52173900000003v155.826087A73.015652 73.015652 0 0 0 439.429565 406.26087h133.565218a73.015652 73.015652 0 0 0 66.782608-77.913044v-155.826087A73.015652 73.015652 0 0 0 573.44 94.60869600000001h-133.565217a73.015652 73.015652 0 0 0-66.782609 77.913043z m200.347826-52.090435a48.528696 48.528696 0 0 1 44.521739 52.090435v155.826087a48.528696 48.528696 0 0 1-44.521739 52.090435h-133.565217a48.528696 48.528696 0 0 1-44.52174-52.090435v-155.826087a48.528696 48.528696 0 0 1 44.52174-52.090435z"  horiz-adv-x="1024" />

    
    <glyph glyph-name="logistics" unicode="&#58886;" d="M944.261246 647.8688520000001l-419.672131 244.459017a22.557377 22.557377 0 0 1-24.131148 0l-419.672131-241.836066a26.229508 26.229508 0 0 1-12.065574-22.032787v-485.770491a26.229508 26.229508 0 0 1 12.065574-21.508197l419.672131-247.081967a26.754098 26.754098 0 0 1 12.590164 0 25.704918 25.704918 0 0 1 12.065574 0l422.819672 244.459016a24.655738 24.655738 0 0 1 12.065574 21.508197V626.3606560000001a24.655738 24.655738 0 0 1-12.065574 21.508196z m-459.540984-280.131147v-428.065574l-369.836065 215.081967V582.8196720000001z m209.836066-31.47541V459.540984l52.459016 31.475409v-123.278688l-52.459016-31.47541z m-157.377049 31.47541l104.918032 62.426229v-137.442623a25.180328 25.180328 0 0 1 12.065574-22.032786 26.229508 26.229508 0 0 1 19.409836 0 9.967213 9.967213 0 0 1 7.344263 0l104.918032 60.852459a26.229508 26.229508 0 0 1 12.065574 21.508196V519.8688520000001l104.918033 62.95082v-428.065574l-367.213115-215.081967v428.065574zM404.457967 778.491803l104.918033 62.95082 371.934426-215.081967-104.918033-62.95082z m-104.918033-60.327869l52.459017 31.47541 367.213115-215.081967-55.606558-31.47541z m318.95082-244.459016l-104.918033-62.426229-372.459016 215.081967 109.114754 62.950819z"  horiz-adv-x="1024" />

    
    <glyph glyph-name="list" unicode="&#58891;" d="M737.11417 511.689069H285.642105a37.726316 37.726316 0 1 0 0 75.038057h451.472065a37.726316 37.726316 0 0 0 0-75.038057m0-188.217004H285.642105a37.726316 37.726316 0 1 0 0 75.452631h451.472065a37.726316 37.726316 0 0 0 0-75.452631m0-188.217004H284.812955a37.726316 37.726316 0 0 0 0 75.452631h451.472065a37.726316 37.726316 0 0 0 0-75.452631m112.764373 677.415384h-119.397571v-4.560324a87.889879 87.889879 0 0 0-87.475304-87.889878H380.579757a87.889879 87.889879 0 0 0-87.889878 87.889878v4.560324H173.292308A76.696356 76.696356 0 0 1 97.425101 736.3886640000001v-787.692308a76.281781 76.281781 0 0 1 75.867207-75.867206h675.757085A76.281781 76.281781 0 0 1 926.574899-52.13279399999999V736.3886640000001a76.281781 76.281781 0 0 1-75.867207 76.281781M625.593522 896H396.748178A55.967611 55.967611 0 0 1 346.17004 835.8866399999999a55.967611 55.967611 0 0 1 50.578138-62.186235h230.503644A55.967611 55.967611 0 0 1 677.82996 835.8866399999999 55.967611 55.967611 0 0 1 625.593522 896"  horiz-adv-x="1024" />

    
    <glyph glyph-name="trucks" unicode="&#58894;" d="M85.504 333.312a95.744 95.744 0 0 0 19.968 43.008l108.032 200.704S224.768 588.8 232.96 588.8H358.4v-256z m-46.08 102.4a217.088 217.088 0 0 1-39.424-102.4v-256a51.2 51.2 0 0 1 51.2-51.2h51.2a181.248 181.248 0 0 0 358.4 0h358.4a181.248 181.248 0 0 0 358.4 0h102.4a51.2 51.2 0 0 1 51.2 51.2V844.8a51.2 51.2 0 0 1-51.2 51.2H460.8a51.2 51.2 0 0 1-51.2-51.2v-153.6H230.4c-37.888 0-51.2-23.04-76.8-51.2zM153.6 0A128 128 0 1 0 281.6-128 128 128 0 0 0 153.6 0z m716.8 0a128 128 0 1 0 128-128 128 128 0 0 0-128 128z"  horiz-adv-x="1331" />

    
    <glyph glyph-name="shop" unicode="&#58895;" d="M945.557617 383.88811599999997a130.897104 130.897104 0 0 0-65.814186-15.356644 137.478523 137.478523 0 0 0-117.734267 66.545455 89.214786 89.214786 0 0 1-10.969031 21.938063 51.92008 51.92008 0 0 1-73.126873 0 73.126874 73.126874 0 0 1-10.237763-16.087913 135.284716 135.284716 0 0 0-116.271729-66.545455 136.747254 136.747254 0 0 0-117.002998 66.545455 73.126874 73.126874 0 0 1-8.775225 15.356644 54.845155 54.845155 0 0 1-73.126873 0 73.126874 73.126874 0 0 1-10.969031-17.55045A136.747254 136.747254 0 0 0 219.407761 369.99401a136.015985 136.015985 0 0 0-66.545455 13.894106 139.672329 139.672329 0 0 0-73.126873 122.853148 137.478523 137.478523 0 0 0 8.043956 45.338661 31.444556 31.444556 0 0 0 0 3.656344l97.990011 234.005996a35.100899 35.100899 0 0 0 38.757243 24.131868H877.549625a41.682318 41.682318 0 0 0 41.682318-25.594406L1009.177997 557.930075a10.237762 10.237762 0 0 0 0-4.387612 137.478523 137.478523 0 0 0 8.043957-45.338662 141.866135 141.866135 0 0 0-73.126874-122.121879m141.134866 189.398603a21.206793 21.206793 0 0 1 0 6.581419l-93.602398 234.737264A118.465535 118.465535 0 0 1 877.549625 895.776232H224.526643a112.615385 112.615385 0 0 1-112.615386-73.126874L12.458709 582.061944a13.894106 13.894106 0 0 1 0-5.85015 219.380621 219.380621 0 0 1-12.431569-68.739262 219.380621 219.380621 0 0 1 115.540461-196.71129A214.993009 214.993009 0 0 1 219.407761 291.016986a213.530471 213.530471 0 0 1 163.804198 78.245755A219.380621 219.380621 0 0 1 548.478693 291.016986a214.993009 214.993009 0 0 1 164.535466 78.245755A219.380621 219.380621 0 0 1 877.549625 291.748255a207.680321 207.680321 0 0 1 103.84016 24.863137A219.380621 219.380621 0 0 1 1096.930246 508.93507a219.380621 219.380621 0 0 1-10.237762 66.545455M1011.371804 245.67832499999997a40.951049 40.951049 0 0 1-40.219781-41.682318v-224.499503a23.4006 23.4006 0 0 0-22.669331-23.400599H196.007162a22.669331 22.669331 0 0 0-22.669331 22.669331v219.380621a40.219781 40.219781 0 1 1-79.708292 0v-219.380621a104.571429 104.571429 0 0 1 102.377623-106.765236H950.676498a103.840161 103.840161 0 0 1 102.377624 105.302698v226.693309a40.951049 40.951049 0 0 1-39.488512 41.682318M892.175 530.1418630000001H252.314855a40.951049 40.951049 0 0 0 0 81.902099h639.860145a40.951049 40.951049 0 0 0 0-81.902099"  horiz-adv-x="1100" />

    
    <glyph glyph-name="finish" unicode="&#58896;" d="M283.414173 187.66614200000004a35.074016 35.074016 0 1 1 0 69.744882H213.266142a35.074016 35.074016 0 1 1 0-69.744882z m-70.148031 245.11496a35.074016 35.074016 0 1 1 0-69.744882h139.892913a35.074016 35.074016 0 1 1 0 69.744882z m0 175.370079a35.074016 35.074016 0 0 1 0-70.148031h420.485039a35.074016 35.074016 0 1 1 0 70.148031z m595.855118 140.296063v-293.896063a339.451969 339.451969 0 0 1-85.870866 13.303937 333.001575 333.001575 0 0 1-333.001575-333.001575 330.179528 330.179528 0 0 1 61.68189-192.705512H108.044094A70.148031 70.148031 0 0 0 37.896063 11.086614000000054V748.447244a69.744882 69.744882 0 0 0 70.148031 68.938583h110.462993a86.274016 86.274016 0 0 1 86.274015-85.064567h237.455118a86.274016 86.274016 0 0 1 85.870867 85.064567h110.866141a69.744882 69.744882 0 0 0 70.148032-68.938583zM871.609449 181.61889799999994L723.250394 31.24409400000002a4.837795 4.837795 0 0 0-2.015748-2.015748 24.995276 24.995276 0 0 0-35.880315 0l-96.755906 94.740158a25.398425 25.398425 0 0 0 35.880315 35.880315l76.598425-76.598425 134.651969 134.248819a25.398425 25.398425 0 0 0 35.880315-35.880315M723.250394 397.707087a262.853543 262.853543 0 1 1 262.853543-262.853544A262.853543 262.853543 0 0 1 723.250394 397.707087M530.141732 896H316.875591a52.006299 52.006299 0 0 1-47.168504-56.037795 52.409449 52.409449 0 0 1 47.168504-56.037796h214.47559a52.409449 52.409449 0 0 1 45.959055 56.037796A52.006299 52.006299 0 0 1 530.141732 896"  horiz-adv-x="1024" />

    
    <glyph glyph-name="user" unicode="&#58897;" d="M814.778182 320.23272699999995a38.167273 38.167273 0 0 1-50.734546-12.567272 34.443636 34.443636 0 0 1 13.498182-46.545455 220.16 220.16 0 0 0 60.974546-67.025455 521.309091 521.309091 0 0 0 68.887272-284.858181 35.84 35.84 0 0 1 36.770909-35.374546 36.305455 36.305455 0 0 1 37.236364 35.374546c0 316.043636-159.650909 409.134545-166.632727 412.858181m-303.476364 98.21091a203.403636 203.403636 0 1 0 201.541818 201.541818 202.938182 202.938182 0 0 0-201.541818-203.403637m195.490909 396.567273a276.48 276.48 0 0 1-390.981818 0 271.825455 271.825455 0 0 1 0-386.327273 261.12 261.12 0 0 1 46.545455-37.701818 465.454545 465.454545 0 0 1-178.269091-103.796363C89.134545 197.81818199999998 42.589091 72.14545499999997 42.589091-88.43636400000003a36.305455 36.305455 0 0 1 36.770909-35.374545 36.305455 36.305455 0 0 1 36.770909 35.374545C117.061818 93.09090900000001 182.225455 221.090909 312.552727 290.909091a471.970909 471.970909 0 0 0 200.610909 54.458182 38.632727 38.632727 0 0 1 10.24 0A275.549091 275.549091 0 0 1 706.792727 430.545455a273.221818 273.221818 0 0 1 0 386.327272"  horiz-adv-x="1024" />

    
    <glyph glyph-name="thin-close" unicode="&#58901;" d="M594.986561 383.999731l416.546464-416.007595a56.419683 56.419683 0 0 0-79.752751-79.752751L514.15607 303.16923899999995l-416.007595-414.929854a53.886994 53.886994 0 0 0-53.886994-14.010619 53.886994 53.886994 0 0 0-42.031856 39.337506 53.886994 53.886994 0 0 0 14.010619 53.886994L433.325578 383.999731 18.395724 800.007325A57.120214 57.120214 0 0 0 18.395724 879.760077a57.120214 57.120214 0 0 0 79.752751 0L514.15607 464.830222 930.163664 879.760077a53.886994 53.886994 0 0 0 53.886994 14.010618 53.886994 53.886994 0 0 0 42.031856-39.337506 53.886994 53.886994 0 0 0-14.010619-53.886994z"  horiz-adv-x="1028" />

    
    <glyph glyph-name="home" unicode="&#58903;" d="M1008.861488 301.20954700000004a38.659051 38.659051 0 0 1-27.014758 10.246977 34.932877 34.932877 0 0 1-36.795964-34.932877v-289.709993a46.577169 46.577169 0 0 0-44.248311-44.248311h-186.308677a35.398649 35.398649 0 1 1 0-70.331526h186.308677a116.442923 116.442923 0 0 1 118.306011 114.579837V276.523647a34.001334 34.001334 0 0 1-10.246978 24.6859M1152.31917 374.801475L609.229375 886.218794a42.385224 42.385224 0 0 1-54.029516 0L12.110064 374.801475a146.252312 146.252312 0 0 1-12.110064-26.083215 79.64696 79.64696 0 0 1 11.644292-32.138247 46.577169 46.577169 0 0 1 25.617443-8.38389 43.782539 43.782539 0 0 1 27.014759 9.781205l69.865754 66.605352v-398.700569a115.977152 115.977152 0 0 1 119.703325-113.648294h194.226796a34.467105 34.467105 0 0 1 36.795964 34.001334V132.13442199999997h232.885847a34.001334 34.001334 0 1 1 0 68.002668H448.072369a34.001334 34.001334 0 0 1-37.261735-34.001334v-218.912696H261.29792a46.577169 46.577169 0 0 0-46.577169 43.316768V460.969238l367.493866 342.807967 517.938123-478.813301a46.577169 46.577169 0 0 1 27.014759-9.781206 43.782539 43.782539 0 0 1 27.014758 9.781206 36.330192 36.330192 0 0 1 10.246977 23.754356 121.566412 121.566412 0 0 1-12.110064 26.083215"  horiz-adv-x="1164" />

    
    <glyph glyph-name="package" unicode="&#58904;" d="M722.842695 240.635811a33.977796 33.977796 0 0 0-10.239884-24.668811 34.443245 34.443245 0 0 0-48.872172 0L558.539108 322.089431l-107.518779-106.122431a34.443245 34.443245 0 0 0-46.544925 0 32.581448 32.581448 0 0 0-9.308985 18.617971v265.306076H0v-438.4532a149.874661 149.874661 0 0 1 149.874661-149.87466h815.467096A150.34011 150.34011 0 0 1 1117.078215 61.43784700000003V499.891047h-394.23552zM965.341757 895.988364h-242.499062v-325.81448H1117.078215V746.113703A149.874661 149.874661 0 0 1 965.341757 895.988364M392.373723 895.988364H149.874661A149.874661 149.874661 0 0 1 0 746.113703V570.173884h392.373723zM532.939398 395.630413a36.770491 36.770491 0 0 0 24.668811 10.239884 34.443245 34.443245 0 0 0 24.203361-10.239884l69.817389-71.679185V895.988364H461.260213v-572.037136z"  horiz-adv-x="1161" />

    
    <glyph glyph-name="gross-close" unicode="&#58905;" d="M630.895583 384.472909l358.013993-360.553099a86.329615 86.329615 0 0 0 0-126.955317 83.790509 83.790509 0 0 0-119.337998 0L511.557586 257.51759200000004 149.734934-97.95729400000005a83.790509 83.790509 0 0 0-120.607551 0 83.790509 83.790509 0 0 0 0 126.955317L384.602269 384.472909 31.66649 742.486901a84.425285 84.425285 0 0 0 119.337997 119.337997L511.557586 503.810906 873.380238 866.903111a83.790509 83.790509 0 0 0 126.955316 0 83.790509 83.790509 0 0 0 0-126.955316z"  horiz-adv-x="1037" />

    
    <glyph glyph-name="shopping-cart" unicode="&#58906;" d="M911.819613 54.458181999999965H319.761431a108.450909 108.450909 0 0 0-105.192728 96.814545L152.663249 586.0072729999999l-34.909091 204.334545a37.236364 37.236364 0 0 1-33.978182 32.116364h-46.545454A36.770909 36.770909 0 0 0 36.765067 896h46.545455a108.916364 108.916364 0 0 0 106.589091-93.090909l34.90909-202.938182 62.37091-438.458182a35.84 35.84 0 0 1 32.581818-31.650909h592.058182a36.770909 36.770909 0 1 0 0-73.076363M365.375976 200.610909a36.770909 36.770909 0 0 0 0 73.076364l494.312727 36.770909a36.770909 36.770909 0 0 1 35.84 30.72l57.25091 329.076363a46.545455 46.545455 0 0 1-9.309091 33.978182 21.876364 21.876364 0 0 1-17.221819 8.378182H292.299613a36.305455 36.305455 0 0 0-36.77091 36.305455 37.236364 37.236364 0 0 0 36.77091 37.236363h631.156363a95.418182 95.418182 0 0 0 72.145455-32.581818 119.156364 119.156364 0 0 0 26.530909-93.090909l-57.250909-329.541818a107.52 107.52 0 0 0-104.727273-93.090909l-491.985455-36.770909h-2.792727M303.005067 11.636363999999958a69.818182 69.818182 0 1 1 69.818182-69.818182 69.818182 69.818182 0 0 1-69.818182 69.818182M816.866885 11.636363999999958a69.818182 69.818182 0 1 1 71.68-69.818182 70.749091 70.749091 0 0 1-71.68 69.818182"  horiz-adv-x="1024" />

    


  </font>
</defs>
</svg>
